<svg version="1.1" id="listing_svg" xmlns="http://www.w3.org/2000/svg" x="0px" y="0px" viewBox="0 0 75.1440735 71.2600098" enable-background="new 0 0 75.1440735 71.2600098" class="jsx-3968841902 svg"><g class="jsx-3968841902"><g class="jsx-3968841902"><path fill="#FFF" d="M37.4441185,4.5900879l8.4299927,5.2099609c1.289978-0.2900391,2.6199951-0.4399414,3.9899902-0.4399414 c1.2199707,0,2.4099731,0.119873,3.5599976,0.3498535L37.7541161,0.130127L37.7441063,0.119873l-0.0184937-0.0100098 c-0.0686035-0.0598145-0.1503906-0.0915527-0.2373047-0.0983887C37.4757347,0.0087891,37.4673729,0.0019531,37.4540672,0 c0,0,0,0-0.0099487,0c-0.0125122,0-0.0244141,0.0056152-0.0368652,0.0068359 c-0.0064087,0.0007324-0.0124512,0.0021973-0.0187988,0.003418c-0.0906982,0.0114746-0.1797485,0.043457-0.2543335,0.1096191 c0,0.0102539-0.0100098,0.0102539-0.0100098,0.0102539c-0.0025635,0.0024414-0.005127,0.0073242-0.0076904,0.0102539 L20.6616478,10.192627V2.4611816h-8.4918203V15.380127L0.9048125,22.2619629 c-0.8674927,0.5310059-1.1628418,1.7080078-0.6588135,2.6257324l0.1799927,0.3278809 c0.5026855,0.9150391,1.6100465,1.2248535,2.4733276,0.6918945L37.4388084,4.5866699L37.4441185,4.5900879z" class="jsx-3968841902"></path><path fill="#FFF" d="M71.9841003,25.9099121c0.8599854,0.5300293,1.9699707,0.2202148,2.4699707-0.6899414l0.1800537-0.3300781 c0.5099487-0.9199219,0.2099609-2.0998535-0.6600342-2.6298828l-9.5100098-5.8100586 c1.6000366,2.0200195,2.7900391,4.380127,3.4400024,6.9399414L71.9841003,25.9099121z" class="jsx-3968841902"></path><path fill="#FFF" d="M54.8841209,45.920166c-1.6400146,0.4599609-3.3200073,0.6899414-5.0200195,0.6899414 c-10.2700195,0-18.6300049-8.3500977-18.6300049-18.6201172c0-7.6599121,4.6500244-14.25,11.2700195-17.1098633l-5.0599976-3 L11.5840731,23.2299805v48.0300293h20.0200195V52.8000488h11.6699829v18.4599609h20.0300293v-2.6201172 c-0.0499878,0.0102539-0.0700073-5.2700195-0.0700073-12.2397461L54.8841209,45.920166z" class="jsx-3968841902"></path><path fill="#FFF" d="M63.2541161,37.8300781c2.0299721-2.75,3.2299843-6.1599121,3.2299843-9.8400879 c0-9.1799316-7.4400063-16.6298828-16.6199989-16.6298828s-16.6300049,7.4499512-16.6300049,16.6298828 c0,9.1801758,7.4500122,16.6201172,16.6300049,16.6201172c2.0100098,0,3.9299927-0.3601074,5.7199707-1.0100098h0.0100098 l12.0499916,15.119873l7.5-5.9799805L63.2541161,37.8300781z M59.0240746,32.5100098 c-1.3999634,2.8300781-4.0700073,4.9101563-7.2600098,5.5100098c-0.6099854,0.119873-1.25,0.1799316-1.8999634,0.1799316 c-5.6400146,0-10.210022-4.5698242-10.210022-10.2099609c0-5.6398926,4.5700073-10.2099609,10.210022-10.2099609 s10.210022,4.5700684,10.210022,10.2099609C60.0741234,29.6101074,59.6941185,31.1501465,59.0240746,32.5100098z" class="jsx-3968841902"></path></g></g></svg>
