<?xml version="1.0" encoding="utf-8"?>
<!-- Generator: Adobe Illustrator 18.0.0, SVG Export Plug-In . SVG Version: 6.00 Build 0)  -->
<!DOCTYPE svg PUBLIC "-//W3C//DTD SVG 1.1//EN" "http://www.w3.org/Graphics/SVG/1.1/DTD/svg11.dtd">
<svg id="Layer_1" data-name="Layer 1" xmlns="http://www.w3.org/2000/svg" viewBox="0 0 550.5 452.93">
                    <title>Loading SavvyCard...</title>
                    <path class="cls-1" d="M91.8,463.56c4.73,43.07,44.65,74.29,89.2,69.73l320-32.78c44.55-4.56,76.82-43.19,72.11-86.26L551.43,216.34c-4.72-43-44.67-74.3-89.2-69.73l-320,32.8C97.69,184,65.4,222.58,70.13,265.66Z" transform="translate(-23.06 -80.81)"></path>
                    <path class="cls-2" d="M54.18,406.35c-0.8,43.3,34.83,79,79.62,79.82l321.73,5.66c44.78,0.8,81.75-33.67,82.55-77l3.75-199c0.82-43.3-34.82-79.06-79.61-79.83L140.5,130.38c-44.78-.79-81.75,33.69-82.57,77Z" transform="translate(-23.06 -80.81)"></path>
                    <path class="cls-3" d="M23.89,345.08C17.54,388,48.31,427.7,92.65,433.87l318.51,44.22c44.34,6.15,85.45-23.62,91.82-66.49l29.23-197c6.36-42.86-24.41-82.61-68.74-88.77L145,81.61c-44.34-6.16-85.44,23.61-91.81,66.49Z" transform="translate(-23.06 -80.81)"></path>
                    <path class="cls-2" d="M432.16,393.19C429.73,409.58,414,421,397,418.62l-71.65-9.93c-17-2.36-28.75-17.59-26.3-34L324,207c2.44-16.41,18.15-27.78,35.12-25.42l71.66,9.95c17,2.36,28.77,17.55,26.32,34Z" transform="translate(-23.06 -80.81)"></path>
                    <path class="cls-2" d="M259.22,175.5l-27.3-3.78c-10.33-1.45-19.88,5.49-21.36,15.49s5.66,19.23,16,20.66l27.31,3.79c10.3,1.43,19.89-5.53,21.37-15.49S269.51,176.94,259.22,175.5Z" transform="translate(-23.06 -80.81)"></path>
                    <path class="cls-2" d="M250.66,235.12l-27.3-3.79c-10.32-1.44-19.87,5.51-21.36,15.5s5.66,19.23,16,20.67l27.3,3.78c10.29,1.42,19.88-5.53,21.36-15.48S261,236.54,250.66,235.12Z" transform="translate(-23.06 -80.81)"></path>
                    <path class="cls-2" d="M241.07,294.74l-27.31-3.79c-10.33-1.44-19.87,5.5-21.36,15.49s5.67,19.24,16,20.68l27.31,3.78c10.3,1.44,19.89-5.53,21.37-15.48S251.36,296.17,241.07,294.74Z" transform="translate(-23.06 -80.81)"></path>
                    <path class="cls-2" d="M171.55,163.33l-27.3-3.78c-10.33-1.44-19.88,5.49-21.37,15.48a18.38,18.38,0,0,0,16,20.67l27.3,3.79c10.29,1.44,19.88-5.54,21.36-15.49S181.84,164.77,171.55,163.33Z" transform="translate(-23.06 -80.81)"></path>
                    <path class="cls-2" d="M162.41,222.87l-27.31-3.79c-10.32-1.43-19.87,5.51-21.36,15.5a18.36,18.36,0,0,0,16,20.66L157,259c10.3,1.43,19.88-5.54,21.37-15.49S172.71,224.29,162.41,222.87Z" transform="translate(-23.06 -80.81)"></path>
                    <path class="cls-2" d="M154.46,282.57l-27.31-3.79c-10.32-1.43-19.88,5.51-21.35,15.49s5.66,19.25,16,20.67l27.31,3.79c10.29,1.44,19.88-5.53,21.35-15.48S164.75,284,154.46,282.57Z" transform="translate(-23.06 -80.81)"></path>
                    <path class="cls-2" d="M232.81,354.4l-27.29-3.79c-10.34-1.44-19.89,5.5-21.38,15.48s5.67,19.24,16,20.69l27.31,3.78c10.28,1.44,19.87-5.53,21.35-15.48S243.1,355.82,232.81,354.4Z" transform="translate(-23.06 -80.81)"></path>
                    <path class="cls-2" d="M145,342.06l-27.31-3.79c-10.32-1.42-19.87,5.5-21.36,15.5s5.66,19.24,16,20.67l27.3,3.79c10.29,1.42,19.88-5.53,21.36-15.5A18.37,18.37,0,0,0,145,342.06Z" transform="translate(-23.06 -80.81)"></path>
                </svg>
